<mxfile host="app.diagrams.net" agent="Mozilla/5.0 (Windows NT 10.0; Win64; x64) AppleWebKit/537.36 (KHTML, like Gecko) Chrome/127.0.0.0 Safari/537.36" version="24.7.7">
  <diagram name="Page-1" id="4vuQndU1B9a_VvuAwlwd">
    <mxGraphModel dx="1750" dy="2039" grid="1" gridSize="10" guides="1" tooltips="1" connect="1" arrows="1" fold="1" page="1" pageScale="1" pageWidth="827" pageHeight="1169" math="0" shadow="0">
      <root>
        <mxCell id="0" />
        <mxCell id="1" parent="0" />
        <mxCell id="qiBrfipsFOV2pD5_GAMq-1" value="&lt;p style=&quot;margin:0px;margin-top:4px;text-align:center;&quot;&gt;&lt;i&gt;KORISNIK&lt;/i&gt;&lt;/p&gt;&lt;hr size=&quot;1&quot; style=&quot;border-style:solid;&quot;&gt;&lt;p style=&quot;margin:0px;margin-left:4px;&quot;&gt;ID&lt;/p&gt;&lt;p style=&quot;margin:0px;margin-left:4px;&quot;&gt;korisinicko_ime&lt;/p&gt;&lt;p style=&quot;margin:0px;margin-left:4px;&quot;&gt;emial&lt;/p&gt;&lt;hr size=&quot;1&quot; style=&quot;border-style:solid;&quot;&gt;&lt;p style=&quot;margin:0px;margin-left:4px;&quot;&gt;zaprimanjeNarudžbe()&lt;/p&gt;&lt;p style=&quot;margin:0px;margin-left:4px;&quot;&gt;pregledNarudžbi()&lt;/p&gt;&lt;p style=&quot;margin:0px;margin-left:4px;&quot;&gt;izdavanjeRačuna()&lt;/p&gt;&lt;p style=&quot;margin:0px;margin-left:4px;&quot;&gt;prijava()&lt;/p&gt;&lt;p style=&quot;margin:0px;margin-left:4px;&quot;&gt;odjava()&lt;/p&gt;&lt;p style=&quot;margin:0px;margin-left:4px;&quot;&gt;&lt;br&gt;&lt;/p&gt;" style="verticalAlign=top;align=left;overflow=fill;html=1;whiteSpace=wrap;" vertex="1" parent="1">
          <mxGeometry x="30" y="40" width="190" height="170" as="geometry" />
        </mxCell>
        <mxCell id="qiBrfipsFOV2pD5_GAMq-2" value="&lt;p style=&quot;margin:0px;margin-top:4px;text-align:center;&quot;&gt;&lt;i&gt;CAFFE BAR&lt;/i&gt;&lt;/p&gt;&lt;hr size=&quot;1&quot; style=&quot;border-style:solid;&quot;&gt;&lt;p style=&quot;margin:0px;margin-left:4px;&quot;&gt;ID&lt;/p&gt;&lt;p style=&quot;margin:0px;margin-left:4px;&quot;&gt;naziv&lt;/p&gt;&lt;p style=&quot;margin:0px;margin-left:4px;&quot;&gt;lokacija&lt;/p&gt;&lt;hr size=&quot;1&quot; style=&quot;border-style:solid;&quot;&gt;&lt;p style=&quot;margin:0px;margin-left:4px;&quot;&gt;dodajStol()&lt;/p&gt;&lt;p style=&quot;margin:0px;margin-left:4px;&quot;&gt;upravljanjeStolovima()&lt;/p&gt;&lt;p style=&quot;margin:0px;margin-left:4px;&quot;&gt;&lt;br&gt;&lt;/p&gt;" style="verticalAlign=top;align=left;overflow=fill;html=1;whiteSpace=wrap;" vertex="1" parent="1">
          <mxGeometry x="310" y="248" width="190" height="120" as="geometry" />
        </mxCell>
        <mxCell id="qiBrfipsFOV2pD5_GAMq-4" value="&lt;p style=&quot;margin:0px;margin-top:4px;text-align:center;&quot;&gt;&lt;i&gt;STOL&lt;/i&gt;&lt;/p&gt;&lt;hr size=&quot;1&quot; style=&quot;border-style:solid;&quot;&gt;&lt;p style=&quot;margin:0px;margin-left:4px;&quot;&gt;ID&lt;/p&gt;&lt;p style=&quot;margin:0px;margin-left:4px;&quot;&gt;broj&lt;/p&gt;&lt;p style=&quot;margin:0px;margin-left:4px;&quot;&gt;status&lt;/p&gt;&lt;hr size=&quot;1&quot; style=&quot;border-style:solid;&quot;&gt;&lt;p style=&quot;margin:0px;margin-left:4px;&quot;&gt;rezervirajStol()&lt;/p&gt;&lt;p style=&quot;margin:0px;margin-left:4px;&quot;&gt;oslobodiStol()&lt;/p&gt;&lt;p style=&quot;margin:0px;margin-left:4px;&quot;&gt;&lt;br&gt;&lt;/p&gt;" style="verticalAlign=top;align=left;overflow=fill;html=1;whiteSpace=wrap;" vertex="1" parent="1">
          <mxGeometry x="590" y="40" width="190" height="120" as="geometry" />
        </mxCell>
        <mxCell id="qiBrfipsFOV2pD5_GAMq-6" value="&lt;p style=&quot;margin:0px;margin-top:4px;text-align:center;&quot;&gt;&lt;i&gt;NARUDŽBA&lt;/i&gt;&lt;/p&gt;&lt;hr size=&quot;1&quot; style=&quot;border-style:solid;&quot;&gt;&lt;p style=&quot;margin:0px;margin-left:4px;&quot;&gt;ID&lt;/p&gt;&lt;p style=&quot;margin:0px;margin-left:4px;&quot;&gt;datumVrijeme&lt;/p&gt;&lt;p style=&quot;margin:0px;margin-left:4px;&quot;&gt;ukupanIznos&lt;/p&gt;&lt;hr size=&quot;1&quot; style=&quot;border-style:solid;&quot;&gt;&lt;p style=&quot;margin:0px;margin-left:4px;&quot;&gt;dodajArtikl()&lt;/p&gt;&lt;p style=&quot;margin:0px;margin-left:4px;&quot;&gt;ukloniArtikl()&lt;/p&gt;&lt;p style=&quot;margin:0px;margin-left:4px;&quot;&gt;potvrdiNarudžbu()&lt;/p&gt;&lt;p style=&quot;margin:0px;margin-left:4px;&quot;&gt;&lt;br&gt;&lt;/p&gt;" style="verticalAlign=top;align=left;overflow=fill;html=1;whiteSpace=wrap;" vertex="1" parent="1">
          <mxGeometry x="310" y="40" width="190" height="130" as="geometry" />
        </mxCell>
        <mxCell id="qiBrfipsFOV2pD5_GAMq-8" value="&lt;p style=&quot;margin:0px;margin-top:4px;text-align:center;&quot;&gt;&lt;i&gt;ARTIKL&lt;/i&gt;&lt;/p&gt;&lt;hr size=&quot;1&quot; style=&quot;border-style:solid;&quot;&gt;&lt;p style=&quot;margin:0px;margin-left:4px;&quot;&gt;ID&lt;/p&gt;&lt;p style=&quot;margin:0px;margin-left:4px;&quot;&gt;naziv&lt;/p&gt;&lt;p style=&quot;margin:0px;margin-left:4px;&quot;&gt;cijena&lt;/p&gt;&lt;hr size=&quot;1&quot; style=&quot;border-style:solid;&quot;&gt;&lt;p style=&quot;margin:0px;margin-left:4px;&quot;&gt;provjeriZalihe()&lt;/p&gt;&lt;p style=&quot;margin:0px;margin-left:4px;&quot;&gt;ažurirajCijenu()&lt;/p&gt;&lt;p style=&quot;margin:0px;margin-left:4px;&quot;&gt;&lt;br&gt;&lt;/p&gt;" style="verticalAlign=top;align=left;overflow=fill;html=1;whiteSpace=wrap;" vertex="1" parent="1">
          <mxGeometry x="310" y="-270" width="190" height="130" as="geometry" />
        </mxCell>
        <mxCell id="qiBrfipsFOV2pD5_GAMq-10" value="&lt;p style=&quot;margin:0px;margin-top:4px;text-align:center;&quot;&gt;&lt;i&gt;DOBAVLJAČ&lt;/i&gt;&lt;/p&gt;&lt;hr size=&quot;1&quot; style=&quot;border-style:solid;&quot;&gt;&lt;p style=&quot;margin:0px;margin-left:4px;&quot;&gt;ID&lt;/p&gt;&lt;p style=&quot;margin:0px;margin-left:4px;&quot;&gt;naziv&lt;/p&gt;&lt;p style=&quot;margin:0px;margin-left:4px;&quot;&gt;kontakt&lt;/p&gt;&lt;hr size=&quot;1&quot; style=&quot;border-style:solid;&quot;&gt;&lt;p style=&quot;margin:0px;margin-left:4px;&quot;&gt;isporučiArtikle()&lt;/p&gt;&lt;p style=&quot;margin:0px;margin-left:4px;&quot;&gt;ažurirajInformacije()&lt;/p&gt;" style="verticalAlign=top;align=left;overflow=fill;html=1;whiteSpace=wrap;" vertex="1" parent="1">
          <mxGeometry x="690" y="-270" width="190" height="130" as="geometry" />
        </mxCell>
        <mxCell id="qiBrfipsFOV2pD5_GAMq-12" value="&lt;p style=&quot;margin:0px;margin-top:4px;text-align:center;&quot;&gt;&lt;i&gt;ADMINISTRATOR&lt;/i&gt;&lt;/p&gt;&lt;hr size=&quot;1&quot; style=&quot;border-style:solid;&quot;&gt;&lt;p style=&quot;margin:0px;margin-left:4px;&quot;&gt;ID&lt;/p&gt;&lt;p style=&quot;margin:0px;margin-left:4px;&quot;&gt;ime&lt;/p&gt;&lt;hr size=&quot;1&quot; style=&quot;border-style:solid;&quot;&gt;&lt;p style=&quot;margin:0px;margin-left:4px;&quot;&gt;upravljanjeKorisnicima()&lt;/p&gt;&lt;p style=&quot;margin:0px;margin-left:4px;&quot;&gt;upravljanjeStolovima()&lt;/p&gt;&lt;p style=&quot;margin:0px;margin-left:4px;&quot;&gt;pregledIzvještaja()&lt;/p&gt;&lt;p style=&quot;margin:0px;margin-left:4px;&quot;&gt;&lt;br&gt;&lt;/p&gt;" style="verticalAlign=top;align=left;overflow=fill;html=1;whiteSpace=wrap;" vertex="1" parent="1">
          <mxGeometry x="310" y="478" width="190" height="130" as="geometry" />
        </mxCell>
        <mxCell id="qiBrfipsFOV2pD5_GAMq-14" value="" style="endArrow=none;html=1;rounded=0;exitX=0.153;exitY=0.764;exitDx=0;exitDy=0;exitPerimeter=0;entryX=-0.007;entryY=0.617;entryDx=0;entryDy=0;entryPerimeter=0;" edge="1" parent="1" source="qiBrfipsFOV2pD5_GAMq-15" target="qiBrfipsFOV2pD5_GAMq-6">
          <mxGeometry width="50" height="50" relative="1" as="geometry">
            <mxPoint x="540" y="170" as="sourcePoint" />
            <mxPoint x="590" y="120" as="targetPoint" />
          </mxGeometry>
        </mxCell>
        <mxCell id="qiBrfipsFOV2pD5_GAMq-15" value="1" style="text;html=1;align=center;verticalAlign=middle;resizable=0;points=[];autosize=1;strokeColor=none;fillColor=none;" vertex="1" parent="1">
          <mxGeometry x="215" y="98" width="30" height="30" as="geometry" />
        </mxCell>
        <mxCell id="qiBrfipsFOV2pD5_GAMq-16" value="*" style="text;html=1;align=center;verticalAlign=middle;resizable=0;points=[];autosize=1;strokeColor=none;fillColor=none;" vertex="1" parent="1">
          <mxGeometry x="285" y="98" width="30" height="30" as="geometry" />
        </mxCell>
        <mxCell id="qiBrfipsFOV2pD5_GAMq-17" value="" style="endArrow=none;html=1;rounded=0;exitX=1.001;exitY=0.623;exitDx=0;exitDy=0;exitPerimeter=0;entryX=0;entryY=0.678;entryDx=0;entryDy=0;entryPerimeter=0;" edge="1" parent="1" source="qiBrfipsFOV2pD5_GAMq-6" target="qiBrfipsFOV2pD5_GAMq-4">
          <mxGeometry width="50" height="50" relative="1" as="geometry">
            <mxPoint x="540" y="220" as="sourcePoint" />
            <mxPoint x="590" y="170" as="targetPoint" />
          </mxGeometry>
        </mxCell>
        <mxCell id="qiBrfipsFOV2pD5_GAMq-19" value="*" style="text;html=1;align=center;verticalAlign=middle;resizable=0;points=[];autosize=1;strokeColor=none;fillColor=none;" vertex="1" parent="1">
          <mxGeometry x="495" y="98" width="30" height="30" as="geometry" />
        </mxCell>
        <mxCell id="qiBrfipsFOV2pD5_GAMq-20" value="1" style="text;html=1;align=center;verticalAlign=middle;resizable=0;points=[];autosize=1;strokeColor=none;fillColor=none;" vertex="1" parent="1">
          <mxGeometry x="565" y="98" width="30" height="30" as="geometry" />
        </mxCell>
        <mxCell id="qiBrfipsFOV2pD5_GAMq-21" value="" style="endArrow=none;html=1;rounded=0;entryX=0.5;entryY=0;entryDx=0;entryDy=0;" edge="1" parent="1" source="qiBrfipsFOV2pD5_GAMq-38" target="qiBrfipsFOV2pD5_GAMq-6">
          <mxGeometry width="50" height="50" relative="1" as="geometry">
            <mxPoint x="405" y="-10" as="sourcePoint" />
            <mxPoint x="460" y="160" as="targetPoint" />
          </mxGeometry>
        </mxCell>
        <mxCell id="qiBrfipsFOV2pD5_GAMq-24" value="1" style="text;html=1;align=center;verticalAlign=middle;resizable=0;points=[];autosize=1;strokeColor=none;fillColor=none;" vertex="1" parent="1">
          <mxGeometry x="380" y="10" width="30" height="30" as="geometry" />
        </mxCell>
        <mxCell id="qiBrfipsFOV2pD5_GAMq-25" value="*" style="text;html=1;align=center;verticalAlign=middle;resizable=0;points=[];autosize=1;strokeColor=none;fillColor=none;" vertex="1" parent="1">
          <mxGeometry x="380" y="-20" width="30" height="30" as="geometry" />
        </mxCell>
        <mxCell id="qiBrfipsFOV2pD5_GAMq-26" value="" style="endArrow=none;html=1;rounded=0;exitX=1;exitY=0.5;exitDx=0;exitDy=0;" edge="1" parent="1" source="qiBrfipsFOV2pD5_GAMq-2">
          <mxGeometry width="50" height="50" relative="1" as="geometry">
            <mxPoint x="660" y="480" as="sourcePoint" />
            <mxPoint x="680" y="308" as="targetPoint" />
          </mxGeometry>
        </mxCell>
        <mxCell id="qiBrfipsFOV2pD5_GAMq-27" value="1" style="text;html=1;align=center;verticalAlign=middle;resizable=0;points=[];autosize=1;strokeColor=none;fillColor=none;" vertex="1" parent="1">
          <mxGeometry x="410" y="448" width="30" height="30" as="geometry" />
        </mxCell>
        <mxCell id="qiBrfipsFOV2pD5_GAMq-30" value="1" style="text;html=1;align=center;verticalAlign=middle;resizable=0;points=[];autosize=1;strokeColor=none;fillColor=none;" vertex="1" parent="1">
          <mxGeometry x="410" y="368" width="30" height="30" as="geometry" />
        </mxCell>
        <mxCell id="qiBrfipsFOV2pD5_GAMq-31" value="" style="endArrow=none;html=1;rounded=0;entryX=0.367;entryY=-0.089;entryDx=0;entryDy=0;entryPerimeter=0;" edge="1" parent="1" target="qiBrfipsFOV2pD5_GAMq-33">
          <mxGeometry width="50" height="50" relative="1" as="geometry">
            <mxPoint x="130" y="320" as="sourcePoint" />
            <mxPoint x="330" y="320" as="targetPoint" />
          </mxGeometry>
        </mxCell>
        <mxCell id="qiBrfipsFOV2pD5_GAMq-32" value="1" style="text;html=1;align=center;verticalAlign=middle;resizable=0;points=[];autosize=1;strokeColor=none;fillColor=none;" vertex="1" parent="1">
          <mxGeometry x="280" y="300" width="30" height="30" as="geometry" />
        </mxCell>
        <mxCell id="qiBrfipsFOV2pD5_GAMq-33" value="*" style="text;html=1;align=center;verticalAlign=middle;resizable=0;points=[];autosize=1;strokeColor=none;fillColor=none;" vertex="1" parent="1">
          <mxGeometry x="120" y="210" width="30" height="30" as="geometry" />
        </mxCell>
        <mxCell id="qiBrfipsFOV2pD5_GAMq-35" value="1" style="text;html=1;align=center;verticalAlign=middle;resizable=0;points=[];autosize=1;strokeColor=none;fillColor=none;" vertex="1" parent="1">
          <mxGeometry x="505" y="258" width="30" height="30" as="geometry" />
        </mxCell>
        <mxCell id="qiBrfipsFOV2pD5_GAMq-37" value="*" style="text;html=1;align=center;verticalAlign=middle;resizable=0;points=[];autosize=1;strokeColor=none;fillColor=none;" vertex="1" parent="1">
          <mxGeometry x="675" y="158" width="30" height="30" as="geometry" />
        </mxCell>
        <mxCell id="qiBrfipsFOV2pD5_GAMq-38" value="&lt;p style=&quot;margin:0px;margin-top:4px;text-align:center;&quot;&gt;&lt;i&gt;NARUDŽBA_ARTIKL&lt;/i&gt;&lt;/p&gt;&lt;hr size=&quot;1&quot; style=&quot;border-style:solid;&quot;&gt;&lt;p style=&quot;margin:0px;margin-left:4px;&quot;&gt;ID_narudžba&lt;/p&gt;&lt;p style=&quot;margin:0px;margin-left:4px;&quot;&gt;ID_artikl&lt;/p&gt;&lt;p style=&quot;margin:0px;margin-left:4px;&quot;&gt;&lt;br&gt;&lt;/p&gt;" style="verticalAlign=top;align=left;overflow=fill;html=1;whiteSpace=wrap;" vertex="1" parent="1">
          <mxGeometry x="320" y="-80" width="170" height="60" as="geometry" />
        </mxCell>
        <mxCell id="qiBrfipsFOV2pD5_GAMq-41" value="" style="endArrow=none;html=1;rounded=0;exitX=0.5;exitY=0;exitDx=0;exitDy=0;entryX=0.5;entryY=1;entryDx=0;entryDy=0;" edge="1" parent="1" source="qiBrfipsFOV2pD5_GAMq-38" target="qiBrfipsFOV2pD5_GAMq-8">
          <mxGeometry width="50" height="50" relative="1" as="geometry">
            <mxPoint x="270" y="-120" as="sourcePoint" />
            <mxPoint x="320" y="-170" as="targetPoint" />
          </mxGeometry>
        </mxCell>
        <mxCell id="qiBrfipsFOV2pD5_GAMq-42" value="*" style="text;html=1;align=center;verticalAlign=middle;resizable=0;points=[];autosize=1;strokeColor=none;fillColor=none;" vertex="1" parent="1">
          <mxGeometry x="385" y="-102" width="30" height="30" as="geometry" />
        </mxCell>
        <mxCell id="qiBrfipsFOV2pD5_GAMq-44" value="1" style="text;html=1;align=center;verticalAlign=middle;resizable=0;points=[];autosize=1;strokeColor=none;fillColor=none;" vertex="1" parent="1">
          <mxGeometry x="385" y="-142" width="30" height="30" as="geometry" />
        </mxCell>
        <mxCell id="qiBrfipsFOV2pD5_GAMq-45" value="" style="endArrow=none;html=1;rounded=0;exitX=1;exitY=0.5;exitDx=0;exitDy=0;entryX=0;entryY=0.5;entryDx=0;entryDy=0;" edge="1" parent="1" source="qiBrfipsFOV2pD5_GAMq-8" target="qiBrfipsFOV2pD5_GAMq-10">
          <mxGeometry width="50" height="50" relative="1" as="geometry">
            <mxPoint x="580" y="-100" as="sourcePoint" />
            <mxPoint x="630" y="-150" as="targetPoint" />
          </mxGeometry>
        </mxCell>
        <mxCell id="qiBrfipsFOV2pD5_GAMq-46" value="*" style="text;html=1;align=center;verticalAlign=middle;resizable=0;points=[];autosize=1;strokeColor=none;fillColor=none;" vertex="1" parent="1">
          <mxGeometry x="495" y="-232" width="30" height="30" as="geometry" />
        </mxCell>
        <mxCell id="qiBrfipsFOV2pD5_GAMq-47" value="*" style="text;html=1;align=center;verticalAlign=middle;resizable=0;points=[];autosize=1;strokeColor=none;fillColor=none;" vertex="1" parent="1">
          <mxGeometry x="665" y="-232" width="30" height="30" as="geometry" />
        </mxCell>
        <mxCell id="qiBrfipsFOV2pD5_GAMq-48" value="" style="endArrow=none;html=1;rounded=0;exitX=0.5;exitY=0;exitDx=0;exitDy=0;entryX=0.5;entryY=1;entryDx=0;entryDy=0;" edge="1" parent="1" source="qiBrfipsFOV2pD5_GAMq-12" target="qiBrfipsFOV2pD5_GAMq-2">
          <mxGeometry width="50" height="50" relative="1" as="geometry">
            <mxPoint x="570" y="420" as="sourcePoint" />
            <mxPoint x="620" y="370" as="targetPoint" />
          </mxGeometry>
        </mxCell>
        <mxCell id="qiBrfipsFOV2pD5_GAMq-49" value="" style="endArrow=none;html=1;rounded=0;entryX=0.25;entryY=1;entryDx=0;entryDy=0;" edge="1" parent="1" target="qiBrfipsFOV2pD5_GAMq-1">
          <mxGeometry width="50" height="50" relative="1" as="geometry">
            <mxPoint x="80" y="540" as="sourcePoint" />
            <mxPoint x="170" y="520" as="targetPoint" />
          </mxGeometry>
        </mxCell>
        <mxCell id="qiBrfipsFOV2pD5_GAMq-50" value="1" style="text;html=1;align=center;verticalAlign=middle;resizable=0;points=[];autosize=1;strokeColor=none;fillColor=none;" vertex="1" parent="1">
          <mxGeometry x="280" y="510" width="30" height="30" as="geometry" />
        </mxCell>
        <mxCell id="qiBrfipsFOV2pD5_GAMq-52" value="*" style="text;html=1;align=center;verticalAlign=middle;resizable=0;points=[];autosize=1;strokeColor=none;fillColor=none;" vertex="1" parent="1">
          <mxGeometry x="55" y="218" width="30" height="30" as="geometry" />
        </mxCell>
        <mxCell id="qiBrfipsFOV2pD5_GAMq-53" value="" style="endArrow=none;html=1;rounded=0;entryX=0;entryY=0.5;entryDx=0;entryDy=0;" edge="1" parent="1" target="qiBrfipsFOV2pD5_GAMq-12">
          <mxGeometry width="50" height="50" relative="1" as="geometry">
            <mxPoint x="80" y="540" as="sourcePoint" />
            <mxPoint x="420" y="450" as="targetPoint" />
          </mxGeometry>
        </mxCell>
        <mxCell id="qiBrfipsFOV2pD5_GAMq-54" value="" style="endArrow=none;html=1;rounded=0;entryX=0.96;entryY=0.711;entryDx=0;entryDy=0;entryPerimeter=0;" edge="1" parent="1" target="qiBrfipsFOV2pD5_GAMq-32">
          <mxGeometry width="50" height="50" relative="1" as="geometry">
            <mxPoint x="130" y="320" as="sourcePoint" />
            <mxPoint x="420" y="290" as="targetPoint" />
          </mxGeometry>
        </mxCell>
        <mxCell id="qiBrfipsFOV2pD5_GAMq-56" value="" style="endArrow=none;html=1;rounded=0;entryX=0.167;entryY=0.203;entryDx=0;entryDy=0;entryPerimeter=0;" edge="1" parent="1" target="qiBrfipsFOV2pD5_GAMq-37">
          <mxGeometry width="50" height="50" relative="1" as="geometry">
            <mxPoint x="680" y="310" as="sourcePoint" />
            <mxPoint x="650" y="220" as="targetPoint" />
          </mxGeometry>
        </mxCell>
      </root>
    </mxGraphModel>
  </diagram>
</mxfile>
